<?xml version="1.0" standalone="no"?>
<!DOCTYPE svg PUBLIC "-//W3C//DTD SVG 20010904//EN"
 "http://www.w3.org/TR/2001/REC-SVG-20010904/DTD/svg10.dtd">
<svg version="1.0" xmlns="http://www.w3.org/2000/svg"
 width="512.000000pt" height="512.000000pt" viewBox="0 0 512.000000 512.000000"
 preserveAspectRatio="xMidYMid meet">

<g transform="translate(0.000000,512.000000) scale(0.100000,-0.100000)"
fill="#000000" stroke="none">
<path d="M4085 5106 c-309 -72 -525 -326 -543 -640 l-5 -99 -174 -83 c-96 -46
-188 -93 -204 -105 -16 -11 -41 -43 -54 -70 -38 -75 -34 -142 20 -331 25 -86
45 -162 45 -168 0 -7 -76 -10 -229 -10 l-228 0 -146 60 c-92 38 -161 60 -184
60 -53 -1 -116 -32 -144 -71 -24 -34 -24 -35 -24 -301 0 -254 1 -268 21 -294
36 -49 70 -67 131 -72 52 -3 71 2 193 53 l135 57 318 -23 c262 -19 320 -26
326 -39 4 -8 18 -52 31 -97 37 -134 104 -192 222 -193 64 0 98 12 268 93 63
31 324 155 580 276 531 253 542 260 569 381 16 73 -4 119 -133 305 -65 93
-121 175 -123 182 -3 7 7 27 22 44 78 94 135 267 135 413 0 114 -20 198 -70
301 -111 229 -333 372 -590 381 -67 2 -127 -1 -165 -10z m247 -147 c145 -30
295 -141 361 -267 89 -168 90 -343 6 -510 -18 -34 -37 -61 -42 -59 -6 2 -73
93 -149 203 -197 284 -226 310 -348 308 -61 -1 -78 -7 -265 -97 -228 -109
-220 -110 -190 18 64 278 350 461 627 404z m-124 -485 c26 -18 106 -123 99
-130 -6 -7 -1007 -483 -1028 -489 -14 -5 -21 4 -33 46 -22 74 -21 132 4 154
28 25 890 435 915 435 11 0 31 -7 43 -16z m390 -541 c109 -159 215 -311 234
-340 39 -57 41 -88 4 -121 -38 -34 -1205 -582 -1240 -582 -18 0 -40 6 -49 13
-17 12 -241 769 -234 790 2 7 975 480 1084 526 1 1 91 -128 201 -286z m-2098
-408 l105 -43 0 -133 0 -133 -100 -42 c-55 -23 -110 -43 -122 -43 l-23 -1 0
220 c0 203 1 220 18 220 9 -1 64 -20 122 -45z m739 -142 c11 -38 27 -92 35
-122 9 -30 14 -56 12 -58 -4 -4 -366 21 -473 33 l-53 5 0 105 0 104 230 0 229
0 20 -67z"/>
<path d="M1510 3494 c-107 -29 -199 -105 -248 -204 -25 -51 -27 -66 -30 -207
-4 -142 -3 -152 17 -172 22 -22 61 -27 91 -11 29 15 40 65 40 182 0 117 9 148
59 201 52 57 95 71 226 75 104 3 123 7 143 25 27 25 29 67 3 98 -18 22 -27 24
-133 26 -76 2 -131 -2 -168 -13z"/>
<path d="M1705 3221 c-22 -10 -52 -31 -67 -47 -53 -57 -58 -85 -58 -314 0
-130 4 -219 11 -231 25 -48 105 -44 128 7 7 16 11 97 11 223 0 239 -4 231 118
231 45 0 92 5 106 11 51 23 55 103 7 128 -35 19 -210 13 -256 -8z"/>
<path d="M1247 2682 c-14 -16 -17 -43 -17 -175 0 -144 2 -159 20 -177 25 -25
74 -26 99 -1 28 28 34 72 30 210 -3 100 -7 122 -23 140 -25 27 -86 29 -109 3z"/>
<path d="M96 2280 c-37 -12 -66 -38 -82 -77 -21 -50 -18 -358 4 -444 33 -125
124 -239 236 -296 75 -38 96 -43 271 -61 l160 -17 3 -273 2 -272 -269 0 c-166
0 -280 -4 -298 -11 -40 -15 -82 -57 -104 -104 -17 -36 -19 -68 -19 -305 0
-237 2 -269 19 -305 22 -48 54 -79 103 -100 33 -13 294 -15 2438 -15 2144 0
2405 2 2438 15 49 21 81 52 103 100 17 36 19 68 19 305 0 237 -2 269 -19 305
-22 47 -64 89 -104 104 -17 7 -132 11 -298 11 l-269 0 0 78 0 79 160 17 c88 9
183 24 212 34 120 38 240 154 289 279 21 52 23 78 27 259 4 226 -2 258 -60
294 -37 24 -81 23 -321 -5 -122 -14 -235 -54 -273 -96 -25 -27 -34 -23 -34 15
0 144 -86 305 -206 385 -81 53 -144 70 -337 91 -177 19 -182 19 -223 0 -69
-30 -74 -49 -74 -274 0 -162 3 -204 19 -255 26 -84 59 -137 128 -202 98 -94
168 -119 383 -139 69 -6 133 -14 143 -16 16 -5 17 -24 15 -272 l-3 -267 -293
-5 c-276 -5 -294 -6 -308 -24 -20 -28 -17 -69 5 -97 l19 -24 623 -3 c434 -2
626 -6 636 -13 18 -16 19 -499 1 -517 -17 -17 -4779 -17 -4796 0 -18 18 -17
501 1 517 10 8 463 12 1636 13 l1623 3 19 24 c23 28 24 68 3 96 -14 19 -30 20
-412 25 l-397 5 -3 73 c-2 52 1 74 10 77 7 2 81 11 165 20 83 9 176 24 207 35
151 52 277 201 307 364 6 33 9 134 7 230 -3 192 -9 210 -75 241 -34 17 -46 17
-212 0 -198 -19 -273 -39 -347 -89 l-51 -35 -7 65 c-19 186 -135 340 -305 404
-68 26 -397 62 -445 49 -43 -12 -76 -48 -87 -96 -12 -51 -11 -281 1 -368 26
-174 151 -327 310 -380 28 -9 122 -25 208 -34 l157 -17 3 -272 2 -272 -820 0
-820 0 0 79 0 78 128 12 c236 23 320 51 413 138 60 56 103 122 129 198 18 51
20 84 20 266 l0 208 -31 35 c-19 22 -43 38 -64 42 -48 9 -338 -23 -415 -46
-36 -11 -91 -37 -122 -58 l-56 -40 -4 82 c-6 107 -44 193 -125 277 -102 107
-162 132 -371 154 -81 8 -163 17 -182 19 -19 2 -48 0 -64 -4z m243 -165 c150
-17 205 -39 266 -106 65 -73 79 -111 83 -239 l3 -115 -52 55 c-29 30 -77 81
-107 113 -40 42 -61 57 -81 57 -56 0 -94 -56 -70 -103 7 -12 52 -65 100 -118
49 -53 89 -100 89 -104 0 -13 -164 7 -217 27 -64 24 -132 88 -169 159 -27 52
-28 61 -32 222 l-4 167 28 0 c16 0 89 -7 163 -15z m1792 1 c150 -17 203 -40
272 -116 61 -67 77 -119 77 -244 l-1 -101 -36 40 c-166 183 -169 185 -201 185
-42 0 -72 -31 -72 -73 0 -28 16 -51 102 -147 l102 -113 -80 7 c-125 11 -175
29 -238 87 -33 30 -66 73 -82 106 -26 52 -28 66 -32 219 l-5 164 34 0 c19 0
91 -7 160 -14z m1792 0 c145 -17 197 -36 260 -99 66 -66 91 -134 95 -262 l4
-110 -63 70 c-125 138 -154 165 -184 165 -38 0 -75 -36 -75 -71 0 -28 6 -36
163 -215 l39 -44 -29 0 c-73 1 -177 22 -220 44 -63 32 -116 88 -147 156 -24
52 -26 64 -26 218 l0 162 28 0 c15 0 85 -7 155 -14z m-2543 -534 c0 -168 0
-169 -30 -230 -35 -68 -92 -125 -155 -153 -36 -16 -222 -45 -231 -36 -2 2 41
54 96 115 84 95 100 118 100 146 0 41 -29 69 -72 69 -32 0 -34 -2 -186 -166
-29 -31 -56 -57 -59 -57 -3 0 -3 48 -1 108 4 83 10 117 27 153 35 73 86 125
154 158 61 30 80 33 345 60 9 1 12 -39 12 -167z m1798 1 c-4 -192 -14 -227
-88 -307 -59 -64 -125 -93 -239 -106 -52 -6 -95 -9 -96 -8 -2 2 40 50 92 108
52 58 99 116 104 128 20 51 -42 113 -93 93 -14 -5 -67 -57 -119 -115 -51 -58
-98 -106 -103 -106 -5 0 -6 44 -3 105 7 125 32 190 96 254 67 67 109 82 271
102 80 9 153 17 164 18 17 1 18 -8 14 -166z m1790 -5 c-3 -164 -4 -176 -30
-223 -65 -125 -149 -171 -337 -190 l-64 -6 97 106 c53 58 102 116 108 130 25
55 -40 119 -96 94 -12 -6 -65 -58 -117 -117 l-94 -105 -3 98 c-4 133 13 180
93 261 81 82 121 94 433 123 11 1 13 -32 10 -171z"/>
<path d="M1203 490 c-26 -11 -43 -40 -43 -74 0 -63 89 -90 129 -40 12 15 21
33 21 40 0 26 -23 62 -47 73 -28 13 -30 13 -60 1z"/>
<path d="M3103 490 c-26 -11 -43 -40 -43 -74 0 -63 89 -90 129 -40 12 15 21
33 21 40 0 26 -23 62 -47 73 -28 13 -30 13 -60 1z"/>
<path d="M1916 439 c-34 -27 -36 -77 -3 -107 62 -58 152 11 113 87 -24 46 -67
54 -110 20z"/>
<path d="M3716 439 c-34 -27 -36 -77 -3 -107 62 -58 152 11 113 87 -24 46 -67
54 -110 20z"/>
</g>
</svg>
