<?xml version="1.0" encoding="UTF-8"?>
<!DOCTYPE svg PUBLIC "-//W3C//DTD SVG 1.1//EN" "http://www.w3.org/Graphics/SVG/1.1/DTD/svg11.dtd">
<svg xmlns="http://www.w3.org/2000/svg" version="1.1" width="512px" height="512px" style="shape-rendering:geometricPrecision; text-rendering:geometricPrecision; image-rendering:optimizeQuality; fill-rule:evenodd; clip-rule:evenodd" xmlns:xlink="http://www.w3.org/1999/xlink">
<g><path style="opacity:0.955" fill="#000000" d="M 511.5,75.5 C 511.5,90.5 511.5,105.5 511.5,120.5C 510.19,155.898 504.023,190.565 493,224.5C 472.638,281.453 432.138,307.286 371.5,302C 347.101,300.122 325.434,291.622 306.5,276.5C 284.238,311.773 269.738,350.106 263,391.5C 258.183,420.968 255.517,450.635 255,480.5C 250.22,488.815 243.72,490.481 235.5,485.5C 233.703,483.869 232.536,481.869 232,479.5C 232.7,416.434 225.033,354.434 209,293.5C 203.903,275.54 197.236,258.206 189,241.5C 158.58,256.531 126.747,260.365 93.5,253C 64.3436,245.833 42.8436,229 29,202.5C 16.6795,178.557 8.67946,153.224 5,126.5C 2.70488,109.062 0.871547,91.729 -0.5,74.5C -0.5,59.5 -0.5,44.5 -0.5,29.5C 1.47542,26.0393 4.47542,23.8727 8.5,23C 47.8915,21.8235 86.8915,25.1568 125.5,33C 151.479,38.3159 175.145,48.6492 196.5,64C 216.819,81.4631 228.653,103.63 232,130.5C 235.917,160.912 230.584,189.579 216,216.5C 213.861,219.939 211.361,223.106 208.5,226C 220.227,249.51 229.393,274.01 236,299.5C 240.3,316.7 243.967,334.034 247,351.5C 256.208,316.676 270.708,284.343 290.5,254.5C 272.36,213.233 273.527,172.567 294,132.5C 305.069,116.767 319.236,104.6 336.5,96C 368.917,81.396 402.917,73.0626 438.5,71C 459.797,69.0622 481.13,68.3956 502.5,69C 506.525,69.8727 509.525,72.0393 511.5,75.5 Z M 23.5,46.5 C 60.7163,46.5881 97.3829,51.0881 133.5,60C 198.465,78.7386 221.632,120.905 203,186.5C 201.432,191.875 199.099,196.875 196,201.5C 174.833,168.333 147.667,141.167 114.5,120C 106.355,113.435 99.1888,114.268 93,122.5C 90.8263,129.964 92.993,135.797 99.5,140C 132.072,160.072 158.072,186.572 177.5,219.5C 166.739,225.944 155.072,229.777 142.5,231C 91.9482,238.325 58.1148,218.159 41,170.5C 33.9093,150.048 29.2427,129.048 27,107.5C 24.7122,87.229 23.5456,66.8957 23.5,46.5 Z M 479.5,92.5 C 482.167,92.5 484.833,92.5 487.5,92.5C 487.556,121.722 485.056,150.722 480,179.5C 475.685,206.803 465.352,231.469 449,253.5C 439.99,263.76 428.823,270.593 415.5,274C 386.359,281.461 358.359,278.461 331.5,265C 327.65,262.239 323.983,259.239 320.5,256C 345.975,224.858 376.975,200.858 413.5,184C 418.971,177.414 418.638,171.081 412.5,165C 408.289,162.475 403.955,162.141 399.5,164C 364.146,180.354 333.646,203.187 308,232.5C 299.319,203.839 300.986,175.839 313,148.5C 320.599,136.234 330.766,126.734 343.5,120C 366.151,108.336 390.151,101.003 415.5,98C 436.906,95.2092 458.24,93.3759 479.5,92.5 Z"/></g>
</svg>
