<?xml version="1.0" encoding="UTF-8"?>
<!DOCTYPE svg PUBLIC "-//W3C//DTD SVG 1.1//EN" "http://www.w3.org/Graphics/SVG/1.1/DTD/svg11.dtd">
<svg xmlns="http://www.w3.org/2000/svg" version="1.1" width="512px" height="512px" style="shape-rendering:geometricPrecision; text-rendering:geometricPrecision; image-rendering:optimizeQuality; fill-rule:evenodd; clip-rule:evenodd" xmlns:xlink="http://www.w3.org/1999/xlink">
<g><path style="opacity:0.941" fill="#000000" d="M 511.5,253.5 C 511.5,256.5 511.5,259.5 511.5,262.5C 489.383,312.077 467.217,361.743 445,411.5C 426.348,442.261 399.182,460.761 363.5,467C 339.945,476.61 316.279,485.944 292.5,495C 259.642,504.208 227.642,501.875 196.5,488C 164.732,473.782 132.732,460.116 100.5,447C 69.2447,437.124 37.2447,431.124 4.5,429C 2.31305,427.975 0.646381,426.475 -0.5,424.5C -0.5,394.833 -0.5,365.167 -0.5,335.5C 40.5074,285.538 91.3407,272.204 152,295.5C 176.963,304.732 200.797,316.232 223.5,330C 234.379,334.609 245.713,337.109 257.5,337.5C 261.31,298.457 260.81,259.457 256,220.5C 252.343,191.866 244.343,164.533 232,138.5C 231.221,137.272 230.221,136.272 229,135.5C 204.195,142.063 180.362,139.563 157.5,128C 138.022,114.146 126.189,95.3126 122,71.5C 118.526,52.8896 117.859,34.2229 120,15.5C 121.214,13.9512 122.714,12.7845 124.5,12C 156.298,9.47383 186.965,14.1405 216.5,26C 249.922,43.2269 261.422,70.0602 251,106.5C 248.833,112.333 246.667,118.167 244.5,124C 263.989,162.45 274.822,203.283 277,246.5C 278.781,242.605 280.281,238.605 281.5,234.5C 273.807,212.208 273.64,189.874 281,167.5C 292.273,144.914 310.44,131.414 335.5,127C 352.359,123.768 369.359,122.768 386.5,124C 389.196,124.69 391.363,126.19 393,128.5C 395.644,159.97 390.311,189.97 377,218.5C 361.417,244.258 338.917,253.425 309.5,246C 305.847,245.227 302.347,244.06 299,242.5C 284.503,272.804 276.67,304.804 275.5,338.5C 299.836,338.333 324.169,338.5 348.5,339C 358.827,341.333 366.994,346.833 373,355.5C 396.041,329.461 418.707,303.128 441,276.5C 458.353,256.713 480.187,247.88 506.5,250C 508.323,250.997 509.99,252.164 511.5,253.5 Z M 136.5,28.5 C 162.989,28.2309 188.322,33.3976 212.5,44C 236.328,58.7683 242.828,79.2683 232,105.5C 217.823,86.7507 199.823,73.084 178,64.5C 169.597,66.4764 167.264,71.4764 171,79.5C 190.301,88.5715 206.467,101.571 219.5,118.5C 172.191,127.059 145.025,107.393 138,59.5C 136.774,49.2034 136.274,38.87 136.5,28.5 Z M 352.5,141.5 C 360.5,141.5 368.5,141.5 376.5,141.5C 376.367,165.668 371.201,188.668 361,210.5C 347.619,230.519 329.785,235.686 307.5,226C 318.16,208.669 331.66,193.836 348,181.5C 350.709,171.446 346.876,167.279 336.5,169C 319.289,180.544 305.122,195.044 294,212.5C 288.245,180.828 300.078,158.995 329.5,147C 337.198,144.726 344.864,142.893 352.5,141.5 Z M 488.5,268.5 C 470.346,310.145 452.179,351.812 434,393.5C 423.355,416.812 406.188,433.312 382.5,443C 353.876,451.645 325.876,461.979 298.5,474C 272.856,484.072 246.856,485.405 220.5,478C 181.396,461.114 142.062,444.781 102.5,429C 74.8028,420.158 46.4695,414.658 17.5,412.5C 16.3335,389.174 16.1669,365.84 17,342.5C 38.2215,317.806 65.0548,304.139 97.5,301.5C 119.698,303.621 141.032,309.121 161.5,318C 180.763,326.631 199.43,336.298 217.5,347C 227.463,351.074 237.796,353.741 248.5,355C 279.833,355.333 311.167,355.667 342.5,356C 353.717,358.245 360.051,365.079 361.5,376.5C 360.413,386.079 355.413,392.579 346.5,396C 302.879,397.312 259.213,397.979 215.5,398C 204.293,399.208 193.293,401.375 182.5,404.5C 183.108,411.018 185.441,416.685 189.5,421.5C 201.853,417.521 214.52,415.354 227.5,415C 267.833,414.667 308.167,414.333 348.5,414C 367.836,408.519 378.003,395.686 379,375.5C 405,345.5 431,315.5 457,285.5C 465.438,276.031 475.938,270.364 488.5,268.5 Z"/></g>
</svg>
