<?xml version="1.0" encoding="UTF-8"?>
<!DOCTYPE svg PUBLIC "-//W3C//DTD SVG 1.1//EN" "http://www.w3.org/Graphics/SVG/1.1/DTD/svg11.dtd">
<svg xmlns="http://www.w3.org/2000/svg" version="1.1" width="512px" height="512px" style="shape-rendering:geometricPrecision; text-rendering:geometricPrecision; image-rendering:optimizeQuality; fill-rule:evenodd; clip-rule:evenodd" xmlns:xlink="http://www.w3.org/1999/xlink">
<g><path style="opacity:0.952" fill="#050505" d="M 330.5,-0.5 C 333.5,-0.5 336.5,-0.5 339.5,-0.5C 354.312,16.9198 361.645,37.2532 361.5,60.5C 360.129,106.682 337.963,138.015 295,154.5C 290.295,166.275 286.628,178.275 284,190.5C 322.678,149.831 369.511,135.331 424.5,147C 425.893,148.171 426.727,149.671 427,151.5C 429.217,161.398 429.883,171.398 429,181.5C 426.487,185.212 422.987,186.378 418.5,185C 415.906,183.661 414.406,181.494 414,178.5C 413.968,172.348 413.135,166.348 411.5,160.5C 349.293,154.185 303.46,178.518 274,233.5C 265.252,252.907 261.252,273.24 262,294.5C 289.421,257.075 322.587,225.908 361.5,201C 370.163,200 373.663,203.833 372,212.5C 332.148,238.85 298.315,271.517 270.5,310.5C 280.149,311.665 289.816,311.832 299.5,311C 319.345,276.396 349.345,258.063 389.5,256C 399.406,243.018 406.239,228.518 410,212.5C 413.274,207.262 417.774,206.096 423.5,209C 424.93,210.907 425.596,213.074 425.5,215.5C 424.179,221.965 422.346,228.299 420,234.5C 416.132,242.896 412.299,251.23 408.5,259.5C 414.82,260.217 420.82,262.051 426.5,265C 427.935,267.659 428.935,270.492 429.5,273.5C 426.229,320.229 402.562,351.395 358.5,367C 337.887,372.065 317.554,371.398 297.5,365C 278.674,387.493 267.007,413.327 262.5,442.5C 299.162,444.224 335.496,449.057 371.5,457C 403.965,464.814 434.298,477.481 462.5,495C 468.543,499.869 469.543,505.369 465.5,511.5C 325.833,511.5 186.167,511.5 46.5,511.5C 40.8152,505.386 41.4818,499.886 48.5,495C 65.0564,484.055 82.723,475.222 101.5,468.5C 109.318,470.496 111.484,475.163 108,482.5C 98.1223,486.855 88.289,491.355 78.5,496C 196.167,496.667 313.833,496.667 431.5,496C 390.953,476.863 348.286,465.529 303.5,462C 289.497,461.056 275.497,460.222 261.5,459.5C 261.666,466.508 261.5,473.508 261,480.5C 256.62,485.343 251.954,485.677 247,481.5C 245.94,474.219 245.106,466.886 244.5,459.5C 211.117,460.465 178.117,464.631 145.5,472C 135.037,474.531 130.871,470.697 133,460.5C 134.319,458.513 136.152,457.346 138.5,457C 173.338,448.629 208.671,444.462 244.5,444.5C 243.486,423.771 237.819,404.437 227.5,386.5C 176.697,395.738 135.197,380.405 103,340.5C 85.4753,315.737 78.9753,288.403 83.5,258.5C 84.5,257.667 85.5,256.833 86.5,256C 144.3,240.817 190.133,257.65 224,306.5C 236.082,327.906 241.415,350.906 240,375.5C 241.667,378.5 243.333,381.5 245,384.5C 245.5,343.835 245.667,303.168 245.5,262.5C 180.77,261.255 134.937,231.255 108,172.5C 104.16,163.306 101.326,153.806 99.5,144C 101.076,136.897 105.41,134.564 112.5,137C 113.701,137.903 114.535,139.069 115,140.5C 128.562,196.729 163.396,231.562 219.5,245C 225.491,246.41 231.491,246.577 237.5,245.5C 217.769,209.595 193.602,176.928 165,147.5C 163.68,137.488 167.846,133.988 177.5,137C 205.874,166.532 230.207,199.032 250.5,234.5C 258.956,176.59 238.956,131.423 190.5,99C 167.986,85.7882 143.653,79.6215 117.5,80.5C 115.681,89.0979 114.181,97.7645 113,106.5C 109.108,112.259 104.441,112.926 99,108.5C 98.0153,106.634 97.5153,104.634 97.5,102.5C 98.4849,91.5902 100.652,80.9235 104,70.5C 105.26,67.5719 107.427,65.7386 110.5,65C 168.957,61.8126 214.457,84.3126 247,132.5C 257.019,148.891 263.686,166.557 267,185.5C 271.233,174.134 275.066,162.634 278.5,151C 254.749,113.295 254.582,75.4617 278,37.5C 291.399,19.0613 308.899,6.39462 330.5,-0.5 Z M 330.5,16.5 C 332.017,16.5106 333.184,17.1772 334,18.5C 351.865,53.1612 348.865,85.8279 325,116.5C 318.285,123.912 310.451,129.412 301.5,133C 309.798,109.773 318.298,86.6065 327,63.5C 328.432,53.3016 324.265,49.8016 314.5,53C 303.777,77.9632 294.277,103.463 286,129.5C 271.214,97.3262 274.881,67.3262 297,39.5C 306.444,29.2064 317.61,21.5397 330.5,16.5 Z M 110.5,266.5 C 153.909,263.621 187.409,280.288 211,316.5C 217.008,327.157 220.675,338.491 222,350.5C 204.567,330.199 183.734,314.366 159.5,303C 149.952,299.229 145.452,302.395 146,312.5C 146.465,313.931 147.299,315.097 148.5,316C 175.875,328.37 198.875,346.37 217.5,370C 175.777,377.093 141.944,363.926 116,330.5C 102.851,312.234 97.0179,291.901 98.5,269.5C 102.623,268.489 106.623,267.489 110.5,266.5 Z M 311.5,328.5 C 320.741,302.093 338.741,284.593 365.5,276C 380.899,271.216 396.232,271.383 411.5,276.5C 411.257,298.826 402.924,317.66 386.5,333C 364.381,352.53 339.048,358.53 310.5,351C 326.476,336.666 344.476,325.333 364.5,317C 368.715,312.042 368.381,307.375 363.5,303C 361.167,302.333 358.833,302.333 356.5,303C 340.503,309.991 325.503,318.491 311.5,328.5 Z M 261.5,326.5 C 272.486,327.153 283.486,327.653 294.5,328C 292.733,334.768 291.233,341.602 290,348.5C 278.713,360.795 269.379,374.462 262,389.5C 261.5,368.503 261.333,347.503 261.5,326.5 Z"/></g>
</svg>
