<?xml version="1.0" encoding="UTF-8"?>
<!DOCTYPE svg PUBLIC "-//W3C//DTD SVG 1.1//EN" "http://www.w3.org/Graphics/SVG/1.1/DTD/svg11.dtd">
<svg xmlns="http://www.w3.org/2000/svg" version="1.1" width="512px" height="512px" style="shape-rendering:geometricPrecision; text-rendering:geometricPrecision; image-rendering:optimizeQuality; fill-rule:evenodd; clip-rule:evenodd" xmlns:xlink="http://www.w3.org/1999/xlink">
<g><path style="opacity:0.943" fill="#000000" d="M 79.5,6.5 C 83.8068,7.06703 86.6402,9.40036 88,13.5C 112.667,83.5 137.333,153.5 162,223.5C 151.975,165.266 164.975,112.932 201,66.5C 205.281,61.0968 210.114,56.2635 215.5,52C 223.355,49.7413 227.355,52.5746 227.5,60.5C 221.99,93.2196 216.156,125.886 210,158.5C 208.529,168.793 208.196,179.127 209,189.5C 215.098,137.668 234.098,91.3349 266,50.5C 294.786,20.6784 329.953,6.51174 371.5,8C 373.333,8.5 374.5,9.66667 375,11.5C 375.667,14.1667 375.667,16.8333 375,19.5C 330.686,79.808 301.353,146.808 287,220.5C 299.864,183.772 317.197,149.438 339,117.5C 350.672,102.347 363.172,87.8471 376.5,74C 400.919,54.2917 427.919,49.9584 457.5,61C 482.275,73.0395 497.609,92.5395 503.5,119.5C 502.736,126.731 498.736,129.231 491.5,127C 480.833,120.667 470.167,114.333 459.5,108C 440.486,100.488 423.653,103.988 409,118.5C 384.006,151.801 361.506,186.801 341.5,223.5C 341.833,223.833 342.167,224.167 342.5,224.5C 372.749,205.83 404.749,202.33 438.5,214C 476.41,230.229 497.91,258.729 503,299.5C 502.5,301.333 501.333,302.5 499.5,303C 496.036,303.817 492.702,303.483 489.5,302C 478.833,291.333 468.167,280.667 457.5,270C 434.574,253.939 410.574,252.272 385.5,265C 382.833,267 380.167,269 377.5,271C 403.535,274.423 423.368,287.257 437,309.5C 458.943,361.052 480.609,412.718 502,464.5C 506.161,477.673 501.828,482.006 489,477.5C 467.333,446.5 445.667,415.5 424,384.5C 423.667,399.167 423.333,413.833 423,428.5C 414.833,470 390,494.833 348.5,503C 286.5,503.667 224.5,503.667 162.5,503C 121.446,494.946 96.6124,470.446 88,429.5C 87.3333,396.833 87.3333,364.167 88,331.5C 88.5,329.667 89.6667,328.5 91.5,328C 100.827,327.5 110.161,327.334 119.5,327.5C 119.666,321.824 119.499,316.157 119,310.5C 99.2146,297.722 81.5479,282.389 66,264.5C 47,239.5 28,214.5 9,189.5C 5.00296,178.964 8.50296,174.464 19.5,176C 46.5,187.5 73.5,199 100.5,210.5C 100.833,210.167 101.167,209.833 101.5,209.5C 71.312,145.486 61.9787,78.6525 73.5,9C 75.6115,8.15532 77.6115,7.32198 79.5,6.5 Z M 345.5,25.5 C 346.873,25.3433 348.207,25.51 349.5,26C 289.179,117.15 258.513,217.65 257.5,327.5C 255.856,327.714 254.356,327.38 253,326.5C 243.333,302.167 233.667,277.833 224,253.5C 219.378,192.665 232.378,135.999 263,83.5C 282.287,52.4436 309.787,33.1102 345.5,25.5 Z M 147.5,235.5 C 141.471,231.73 135.305,228.064 129,224.5C 99.1918,173.603 84.8585,118.603 86,59.5C 106.807,118.089 127.307,176.756 147.5,235.5 Z M 473.5,95.5 C 443.448,80.7839 416.948,85.4506 394,109.5C 345.245,175.727 305.578,247.394 275,324.5C 275.288,311.466 276.288,298.466 278,285.5C 292.667,250.833 307.333,216.167 322,181.5C 339.465,143.383 363.632,110.216 394.5,82C 417.026,69.0725 439.36,69.4059 461.5,83C 466.377,86.3761 470.377,90.5428 473.5,95.5 Z M 203.5,92.5 C 204.124,92.9169 204.457,93.5836 204.5,94.5C 199.794,117.738 195.627,141.072 192,164.5C 189.488,190.072 192.155,215.072 200,239.5C 211.797,268.753 223.297,298.087 234.5,327.5C 232.396,327.799 230.396,327.466 228.5,326.5C 217.567,305.399 203.734,286.399 187,269.5C 183.907,250.181 180.907,230.848 178,211.5C 171.879,168.596 180.379,128.929 203.5,92.5 Z M 43.5,205.5 C 70.7538,215.959 97.4204,227.792 123.5,241C 141.791,252.126 158.458,265.293 173.5,280.5C 155.125,276.341 139.459,281.007 126.5,294.5C 110.343,283.52 95.5098,270.853 82,256.5C 68.1766,240.157 55.3433,223.157 43.5,205.5 Z M 399.5,223.5 C 425.316,224.328 447.149,233.994 465,252.5C 465.667,253.167 465.667,253.833 465,254.5C 447.18,241.754 427.347,236.921 405.5,240C 383.883,243.722 366.383,254.222 353,271.5C 342.833,289.833 332.667,308.167 322.5,326.5C 312.517,327.666 302.517,327.832 292.5,327C 302.098,304.972 312.098,283.139 322.5,261.5C 331.023,254.476 339.69,247.643 348.5,241C 363.925,230.248 380.925,224.415 399.5,223.5 Z M 371.5,287.5 C 399.814,289.98 418.647,304.646 428,331.5C 437.343,353.831 446.343,376.164 455,398.5C 438.608,374.108 421.442,350.275 403.5,327C 389.882,314.775 374.049,306.941 356,303.5C 357.302,298.556 359.468,293.889 362.5,289.5C 365.642,288.833 368.642,288.166 371.5,287.5 Z M 154.5,296.5 C 162.377,295.5 169.711,297 176.5,301C 178.227,302.389 179.561,304.056 180.5,306C 165.725,338.328 156.225,372.161 152,407.5C 141.149,376.396 136.149,344.396 137,311.5C 140.912,304.075 146.746,299.075 154.5,296.5 Z M 197.5,309.5 C 201.501,314.857 205.167,320.524 208.5,326.5C 202.5,327.833 196.5,327.833 190.5,326.5C 193.129,320.915 195.462,315.249 197.5,309.5 Z M 345.5,320.5 C 355.346,320.461 364.679,322.628 373.5,327C 362.833,327.667 352.167,327.667 341.5,327C 343.221,325.056 344.554,322.89 345.5,320.5 Z M 103.5,343.5 C 109.167,343.5 114.833,343.5 120.5,343.5C 124.763,382.121 135.596,418.788 153,453.5C 157.052,455.942 161.219,456.109 165.5,454C 166.126,453.25 166.626,452.416 167,451.5C 167.146,414.644 172.646,378.644 183.5,343.5C 254.167,343.333 324.834,343.5 395.5,344C 399,348.833 402.5,353.667 406,358.5C 407.143,368.238 407.643,378.072 407.5,388C 407.805,402.58 406.972,417.08 405,431.5C 396.522,460.979 377.355,479.145 347.5,486C 316.853,487.121 286.187,487.621 255.5,487.5C 224.813,487.621 194.147,487.121 163.5,486C 132,478.5 112.5,459 105,427.5C 103.611,399.523 103.111,371.523 103.5,343.5 Z"/></g>
</svg>
