<?xml version="1.0" encoding="UTF-8"?>
<!DOCTYPE svg PUBLIC "-//W3C//DTD SVG 1.1//EN" "http://www.w3.org/Graphics/SVG/1.1/DTD/svg11.dtd">
<svg xmlns="http://www.w3.org/2000/svg" version="1.1" width="512px" height="512px" style="shape-rendering:geometricPrecision; text-rendering:geometricPrecision; image-rendering:optimizeQuality; fill-rule:evenodd; clip-rule:evenodd" xmlns:xlink="http://www.w3.org/1999/xlink">
<g><path style="opacity:0.957" fill="#000000" d="M 250.5,-0.5 C 253.833,-0.5 257.167,-0.5 260.5,-0.5C 280.668,15.5038 297.501,34.5038 311,56.5C 330.333,91.8333 330.333,127.167 311,162.5C 299.246,182.591 284.246,199.925 266,214.5C 265.333,233.167 265.333,251.833 266,270.5C 279,262.833 292,255.167 305,247.5C 326.754,141.863 388.587,107.363 490.5,144C 495.897,145.724 498.564,149.391 498.5,155C 494.493,185.362 483.993,213.195 467,238.5C 449.482,262.179 425.982,275.346 396.5,278C 368.825,280.082 341.992,276.249 316,266.5C 299.186,275.907 282.519,285.574 266,295.5C 265.167,314.176 265.334,332.842 266.5,351.5C 293.648,357.317 312.648,372.984 323.5,398.5C 357.209,384.341 386.376,390.674 411,417.5C 414.085,422 416.918,426.667 419.5,431.5C 444.757,427.647 467.423,433.48 487.5,449C 499.959,459.936 507.959,473.436 511.5,489.5C 511.5,495.167 511.5,500.833 511.5,506.5C 509.833,508.167 508.167,509.833 506.5,511.5C 339.167,511.5 171.833,511.5 4.5,511.5C 2.83333,509.833 1.16667,508.167 -0.5,506.5C -0.5,500.833 -0.5,495.167 -0.5,489.5C 7.94948,457.888 28.2828,438.721 60.5,432C 70.8982,431.666 81.2316,431.5 91.5,431.5C 107.77,401.196 133.103,388.03 167.5,392C 174.531,393.066 181.197,395.233 187.5,398.5C 198.344,372.993 217.344,357.327 244.5,351.5C 245.666,332.842 245.833,314.176 245,295.5C 228.582,285.418 211.915,275.751 195,266.5C 169.008,276.249 142.175,280.082 114.5,278C 85.0175,275.346 61.5175,262.179 44,238.5C 27.0066,213.195 16.5066,185.362 12.5,155C 12.436,149.391 15.1027,145.724 20.5,144C 122.413,107.363 184.246,141.863 206,247.5C 219,255.167 232,262.833 245,270.5C 245.667,251.833 245.667,233.167 245,214.5C 218.982,193.805 200.316,167.805 189,136.5C 181.585,108.322 185.252,81.6549 200,56.5C 213.499,34.5038 230.332,15.5038 250.5,-0.5 Z M 254.5,23.5 C 279.496,42.8081 295.996,67.8081 304,98.5C 305.769,112.278 304.102,125.612 299,138.5C 291.113,156.381 280.113,172.048 266,185.5C 265.667,148.5 265.333,111.5 265,74.5C 261.345,69.7255 256.512,68.2255 250.5,70C 248.667,71.1667 247.167,72.6667 246,74.5C 245.667,111.5 245.333,148.5 245,185.5C 225.902,167.644 213.235,145.977 207,120.5C 205.231,106.722 206.898,93.3884 212,80.5C 222.532,58.7994 236.699,39.7994 254.5,23.5 Z M 76.5,151.5 C 120.128,146.888 151.295,164.222 170,203.5C 173.995,212.651 177.495,221.984 180.5,231.5C 180.167,231.833 179.833,232.167 179.5,232.5C 157.833,220 136.167,207.5 114.5,195C 102.667,192.833 97.8333,197.667 100,209.5C 101.167,211.333 102.667,212.833 104.5,214C 126.331,226.414 147.998,239.081 169.5,252C 144.451,259.189 119.451,259.189 94.5,252C 77.5481,244.382 64.3815,232.548 55,216.5C 45.5996,199.299 38.7663,181.132 34.5,162C 48.1864,156.912 62.1864,153.412 76.5,151.5 Z M 407.5,151.5 C 431.326,150.027 454.326,153.527 476.5,162C 471.497,186.696 461.664,209.196 447,229.5C 429.884,249.221 408.217,258.554 382,257.5C 368.25,257.51 354.75,255.677 341.5,252C 363.002,239.081 384.669,226.414 406.5,214C 411.918,209.345 412.918,203.845 409.5,197.5C 405.685,194.576 401.351,193.742 396.5,195C 374.833,207.5 353.167,220 331.5,232.5C 335.243,213.001 343.41,195.334 356,179.5C 369.742,163.715 386.908,154.382 407.5,151.5 Z M 246.5,372.5 C 281.35,371.177 301.184,387.843 306,422.5C 309.226,426.576 313.393,428.076 318.5,427C 326.505,420.497 335.505,415.83 345.5,413C 365.556,409.782 382.056,415.949 395,431.5C 399.247,438.828 403.08,446.328 406.5,454C 408.725,455.131 411.058,455.964 413.5,456.5C 442.376,446.298 465.876,453.298 484,477.5C 486.529,481.926 488.362,486.592 489.5,491.5C 333.5,491.5 177.5,491.5 21.5,491.5C 27.5282,470.641 41.1949,457.808 62.5,453C 74.4373,451.623 86.104,452.79 97.5,456.5C 99.9417,455.964 102.275,455.131 104.5,454C 107.92,446.328 111.753,438.828 116,431.5C 135.181,410.627 157.348,406.794 182.5,420C 185.557,422.723 188.89,425.056 192.5,427C 198.092,428.252 202.259,426.419 205,421.5C 207.954,395.729 221.787,379.395 246.5,372.5 Z"/></g>
<g><path style="opacity:0.908" fill="#000000" d="M 270.5,451.5 C 282.324,449.824 287.158,454.824 285,466.5C 281.345,471.275 276.512,472.775 270.5,471C 265.725,467.345 264.225,462.512 266,456.5C 267.366,454.638 268.866,452.972 270.5,451.5 Z"/></g>
<g><path style="opacity:0.979" fill="#000000" d="M 310.5,451.5 C 333.836,451.333 357.169,451.5 380.5,452C 385.275,455.655 386.775,460.488 385,466.5C 383.833,468.333 382.333,469.833 380.5,471C 357.167,471.667 333.833,471.667 310.5,471C 305.725,467.345 304.225,462.512 306,456.5C 307.366,454.638 308.866,452.972 310.5,451.5 Z"/></g>
</svg>
