<?xml version="1.0" encoding="UTF-8"?>
<!DOCTYPE svg PUBLIC "-//W3C//DTD SVG 1.1//EN" "http://www.w3.org/Graphics/SVG/1.1/DTD/svg11.dtd">
<svg xmlns="http://www.w3.org/2000/svg" version="1.1" width="512px" height="512px" style="shape-rendering:geometricPrecision; text-rendering:geometricPrecision; image-rendering:optimizeQuality; fill-rule:evenodd; clip-rule:evenodd" xmlns:xlink="http://www.w3.org/1999/xlink">
<g><path style="opacity:0.932" fill="#000000" d="M 239.5,15.5 C 296.677,11.3346 339.843,33.668 369,82.5C 384.441,113.548 387.775,145.882 379,179.5C 361.55,231.618 325.717,262.118 271.5,271C 225.054,275.636 186.554,260.469 156,225.5C 128.809,190.216 120.809,150.883 132,107.5C 149.618,55.3708 185.452,24.7041 239.5,15.5 Z M 253.5,31.5 C 301.829,33.7298 336.662,56.3965 358,99.5C 374.37,142.613 368.036,181.946 339,217.5C 302.603,254.224 260.103,263.724 211.5,246C 160.912,220.335 139.079,179.168 146,122.5C 157.5,75 187,45.5 234.5,34C 240.977,33.1379 247.311,32.3046 253.5,31.5 Z M 247.5,80.5 C 271.48,78.3393 286.98,88.6726 294,111.5C 295.793,125.737 293.793,139.404 288,152.5C 279.292,170.35 268.459,186.683 255.5,201.5C 236.699,181.574 223.865,158.24 217,131.5C 212.91,105.644 223.077,88.6436 247.5,80.5 Z M 252.5,112.5 C 261.85,112.365 264.517,116.532 260.5,125C 251.956,128.322 248.123,125.489 249,116.5C 249.69,114.65 250.856,113.316 252.5,112.5 Z"/></g>
<g><path style="opacity:0.929" fill="#000000" d="M 244.5,63.5 C 279.043,60.5849 301.21,75.5849 311,108.5C 313.297,127.715 310.297,146.048 302,163.5C 290.84,184.653 277.34,204.153 261.5,222C 256.637,224.329 252.137,223.829 248,220.5C 230.824,201.31 216.824,179.977 206,156.5C 199.966,141.018 197.966,125.018 200,108.5C 205.681,84.3195 220.514,69.3195 244.5,63.5 Z M 247.5,80.5 C 223.077,88.6436 212.91,105.644 217,131.5C 223.865,158.24 236.699,181.574 255.5,201.5C 268.459,186.683 279.292,170.35 288,152.5C 293.793,139.404 295.793,125.737 294,111.5C 286.98,88.6726 271.48,78.3393 247.5,80.5 Z M 252.5,112.5 C 250.856,113.316 249.69,114.65 249,116.5C 248.123,125.489 251.956,128.322 260.5,125C 264.517,116.532 261.85,112.365 252.5,112.5 Z"/></g>
<g><path style="opacity:0.932" fill="#000000" d="M 248.5,95.5 C 263.367,93.0115 273.534,98.6782 279,112.5C 281.982,127.376 276.482,137.543 262.5,143C 247.624,145.982 237.457,140.482 232,126.5C 229.146,111.533 234.646,101.199 248.5,95.5 Z M 252.5,112.5 C 250.856,113.316 249.69,114.65 249,116.5C 248.123,125.489 251.956,128.322 260.5,125C 264.517,116.532 261.85,112.365 252.5,112.5 Z"/></g>
<g><path style="opacity:0.938" fill="#000000" d="M 91.5,287.5 C 95.2568,287.071 98.7568,287.737 102,289.5C 105.729,299.352 109.062,309.352 112,319.5C 134.735,309.809 157.569,300.309 180.5,291C 189.916,288.838 199.249,289.172 208.5,292C 253.241,306.802 297.907,321.802 342.5,337C 352.469,342.302 358.636,350.468 361,361.5C 396.187,343.323 431.687,325.823 467.5,309C 483.041,307.695 493.207,314.529 498,329.5C 501.291,340.838 498.458,350.338 489.5,358C 437.5,392.667 385.5,427.333 333.5,462C 315.539,472.042 296.539,474.709 276.5,470C 232.167,452.986 187.833,436.319 143.5,420C 145.991,427.473 148.491,434.973 151,442.5C 151.956,446.572 151.456,450.405 149.5,454C 109.315,468.062 68.9819,481.728 28.5,495C 25.5,495.667 22.5,495.667 19.5,495C 17.6667,494.5 16.5,493.333 16,491.5C 15.3333,435.5 15.3333,379.5 16,323.5C 18.4834,320.495 21.6501,318.328 25.5,317C 47.7082,307.391 69.7082,297.558 91.5,287.5 Z M 187.5,306.5 C 191.182,306.335 194.848,306.501 198.5,307C 244.982,322.272 291.315,337.938 337.5,354C 346.937,363.621 346.603,372.954 336.5,382C 333.55,383.65 330.383,384.483 327,384.5C 299.341,376.948 271.841,368.781 244.5,360C 234.214,357.375 230.047,361.208 232,371.5C 233.109,373.815 234.943,375.315 237.5,376C 264.833,384.333 292.167,392.667 319.5,401C 337.446,403.36 350.78,396.694 359.5,381C 396.167,362.667 432.833,344.333 469.5,326C 471.971,325.294 474.305,325.627 476.5,327C 482.227,332.09 483.227,337.757 479.5,344C 428.328,377.752 377.328,411.752 326.5,446C 310.791,455.84 294.124,457.84 276.5,452C 230.206,434.069 183.873,416.235 137.5,398.5C 130.741,378.057 124.075,357.557 117.5,337C 119.126,335.181 121.126,333.848 123.5,333C 145.047,324.384 166.38,315.551 187.5,306.5 Z M 88.5,307.5 C 90.6138,308.36 91.7805,310.027 92,312.5C 105.608,355.821 119.108,399.155 132.5,442.5C 122.169,445.333 112.002,448.666 102,452.5C 89.0604,408.236 75.8937,364.07 62.5,320C 71.3488,316.075 80.0155,311.908 88.5,307.5 Z M 45.5,326.5 C 47.3115,328.385 48.4782,330.719 49,333.5C 61.0675,374.535 73.2341,415.535 85.5,456.5C 85.2907,457.086 84.9574,457.586 84.5,458C 67.1296,463.735 49.7963,469.568 32.5,475.5C 31.3334,428.17 31.1667,380.837 32,333.5C 36.7205,331.438 41.2205,329.105 45.5,326.5 Z"/></g>
</svg>
