<?xml version="1.0" encoding="UTF-8"?>
<!DOCTYPE svg PUBLIC "-//W3C//DTD SVG 1.1//EN" "http://www.w3.org/Graphics/SVG/1.1/DTD/svg11.dtd">
<svg xmlns="http://www.w3.org/2000/svg" version="1.1" width="512px" height="512px" style="shape-rendering:geometricPrecision; text-rendering:geometricPrecision; image-rendering:optimizeQuality; fill-rule:evenodd; clip-rule:evenodd" xmlns:xlink="http://www.w3.org/1999/xlink">
<g><path style="opacity:0.973" fill="#000000" d="M 50.5,-0.5 C 187.167,-0.5 323.833,-0.5 460.5,-0.5C 487.833,6.16667 504.833,23.1667 511.5,50.5C 511.5,187.167 511.5,323.833 511.5,460.5C 504.833,487.833 487.833,504.833 460.5,511.5C 416.5,511.5 372.5,511.5 328.5,511.5C 324.597,509.434 321.43,506.434 319,502.5C 318.333,437.5 318.333,372.5 319,307.5C 320.927,302.572 324.427,299.406 329.5,298C 348.83,297.5 368.164,297.333 387.5,297.5C 387.5,283.5 387.5,269.5 387.5,255.5C 368.164,255.667 348.83,255.5 329.5,255C 324.427,253.594 320.927,250.428 319,245.5C 318.333,221.167 318.333,196.833 319,172.5C 321.167,167.667 324.667,164.167 329.5,162C 348.83,161.5 368.164,161.333 387.5,161.5C 387.5,147.5 387.5,133.5 387.5,119.5C 366.831,119.333 346.164,119.5 325.5,120C 294.924,127.577 278.424,147.077 276,178.5C 275.667,200.833 275.333,223.167 275,245.5C 273.073,250.428 269.573,253.594 264.5,255C 245.17,255.5 225.836,255.667 206.5,255.5C 206.5,269.5 206.5,283.5 206.5,297.5C 225.836,297.333 245.17,297.5 264.5,298C 269.573,299.406 273.073,302.572 275,307.5C 275.667,372.167 275.667,436.833 275,501.5C 272.978,506.02 269.811,509.353 265.5,511.5C 193.833,511.5 122.167,511.5 50.5,511.5C 23.1667,504.833 6.16667,487.833 -0.5,460.5C -0.5,323.833 -0.5,187.167 -0.5,50.5C 6.16667,23.1667 23.1667,6.16667 50.5,-0.5 Z M 55.5,30.5 C 188.834,30.3333 322.167,30.5 455.5,31C 468.333,34.5 476.5,42.6667 480,55.5C 480.667,188.833 480.667,322.167 480,455.5C 476.5,468.333 468.333,476.5 455.5,480C 420.168,480.5 384.835,480.667 349.5,480.5C 349.5,429.833 349.5,379.167 349.5,328.5C 368.836,328.667 388.17,328.5 407.5,328C 413,326.5 416.5,323 418,317.5C 418.667,290.167 418.667,262.833 418,235.5C 416.594,230.427 413.428,226.927 408.5,225C 388.836,224.5 369.169,224.333 349.5,224.5C 349.5,213.833 349.5,203.167 349.5,192.5C 368.503,192.667 387.503,192.5 406.5,192C 412.236,190.598 416.069,187.098 418,181.5C 418.667,153.833 418.667,126.167 418,98.5C 415.635,92.7979 411.469,89.2979 405.5,88C 380.833,87.3333 356.167,87.3333 331.5,88C 284.514,92.9001 256.014,118.4 246,164.5C 244.618,184.469 244.118,204.469 244.5,224.5C 224.831,224.333 205.164,224.5 185.5,225C 180.572,226.927 177.406,230.427 176,235.5C 175.333,262.833 175.333,290.167 176,317.5C 177.5,323 181,326.5 186.5,328C 205.83,328.5 225.164,328.667 244.5,328.5C 244.5,379.167 244.5,429.833 244.5,480.5C 181.499,480.667 118.499,480.5 55.5,480C 42.6667,476.5 34.5,468.333 31,455.5C 30.3333,322.167 30.3333,188.833 31,55.5C 34.6829,42.6514 42.8496,34.3181 55.5,30.5 Z"/></g>
</svg>
