<?xml version="1.0" encoding="UTF-8"?>
<!DOCTYPE svg PUBLIC "-//W3C//DTD SVG 1.1//EN" "http://www.w3.org/Graphics/SVG/1.1/DTD/svg11.dtd">
<svg xmlns="http://www.w3.org/2000/svg" version="1.1" width="512px" height="512px" style="shape-rendering:geometricPrecision; text-rendering:geometricPrecision; image-rendering:optimizeQuality; fill-rule:evenodd; clip-rule:evenodd" xmlns:xlink="http://www.w3.org/1999/xlink">
<g><path style="opacity:0.965" fill="#000000" d="M 250.5,-0.5 C 287.167,-0.5 323.833,-0.5 360.5,-0.5C 357.991,46.6581 376.658,82.4914 416.5,107C 428.684,113.617 441.684,117.617 455.5,119C 466.09,119.406 476.59,120.239 487,121.5C 487.5,157.165 487.667,192.832 487.5,228.5C 442.713,232.134 400.713,223.134 361.5,201.5C 360.314,243.832 360.314,286.166 361.5,328.5C 365.08,398.85 337.413,452.683 278.5,490C 258.074,501.309 236.407,508.476 213.5,511.5C 201.167,511.5 188.833,511.5 176.5,511.5C 113.392,502.568 68.2251,469.235 41,411.5C 17.2137,347.214 27.2137,288.88 71,236.5C 115.375,191.212 168.875,174.545 231.5,186.5C 232.5,224.494 232.833,262.494 232.5,300.5C 221.925,297.364 211.258,294.531 200.5,292C 173.657,290.834 154.49,302.334 143,326.5C 134.341,354.186 141.508,376.686 164.5,394C 193.116,409.261 218.283,404.761 240,380.5C 243.803,374.561 246.803,368.227 249,361.5C 250.491,240.869 250.991,120.202 250.5,-0.5 Z M 281.5,29.5 C 297.833,29.5 314.167,29.5 330.5,29.5C 340.582,90.4157 375.248,129.582 434.5,147C 441.795,148.494 449.128,149.66 456.5,150.5C 456.5,166.167 456.5,181.833 456.5,197.5C 423.1,195.422 392.433,185.255 364.5,167C 353.308,158.308 341.975,149.808 330.5,141.5C 329.553,211.5 329.386,281.5 330,351.5C 325.605,407.868 297.772,447.701 246.5,471C 195.157,489.571 148.157,481.904 105.5,448C 61.0651,405.758 48.8984,355.591 69,297.5C 88.4737,253.163 121.974,225.996 169.5,216C 180.089,214.174 190.756,213.341 201.5,213.5C 201.5,229.167 201.5,244.833 201.5,260.5C 155.96,260.335 125.793,281.668 111,324.5C 101.719,372.396 118.886,406.896 162.5,428C 195.908,439.516 226.241,434.183 253.5,412C 268.871,397.425 278.038,379.592 281,358.5C 281.5,248.834 281.667,139.167 281.5,29.5 Z"/></g>
</svg>
