<?xml version="1.0" encoding="UTF-8"?>
<!DOCTYPE svg PUBLIC "-//W3C//DTD SVG 1.1//EN" "http://www.w3.org/Graphics/SVG/1.1/DTD/svg11.dtd">
<svg xmlns="http://www.w3.org/2000/svg" version="1.1" width="512px" height="512px" style="shape-rendering:geometricPrecision; text-rendering:geometricPrecision; image-rendering:optimizeQuality; fill-rule:evenodd; clip-rule:evenodd" xmlns:xlink="http://www.w3.org/1999/xlink">
<g><path style="opacity:0.965" fill="#000000" d="M 511.5,111.5 C 511.5,115.167 511.5,118.833 511.5,122.5C 502.983,136.353 494.317,150.187 485.5,164C 501.208,265.548 471.208,350.881 395.5,420C 357.567,450.55 314.234,468.884 265.5,475C 195.323,483.686 126.989,476.019 60.5,452C 43.3555,445.85 27.8555,437.017 14,425.5C 7.24515,415.786 8.41182,407.286 17.5,400C 32.766,398.714 48.0993,398.047 63.5,398C 94.5452,397.429 122.545,388.096 147.5,370C 119.772,363.1 94.1056,351.767 70.5,336C 62.7046,329.873 55.2046,323.373 48,316.5C 41.3799,306.272 43.2132,297.772 53.5,291C 59.553,289.538 65.553,287.871 71.5,286C 32.6119,266.281 8.61193,235.114 -0.5,192.5C -0.5,188.5 -0.5,184.5 -0.5,180.5C 2.91821,174.603 8.08488,171.269 15,170.5C 21.4756,172.444 27.9756,173.944 34.5,175C 23.9633,152.907 20.7967,129.741 25,105.5C 28.2317,91.3765 33.8984,78.3765 42,66.5C 51.0337,58.2216 59.7003,58.5549 68,67.5C 105.968,137.268 164.468,177.268 243.5,187.5C 241.448,141.789 257.782,104.289 292.5,75C 329.545,49.9734 368.378,46.8068 409,65.5C 430.213,55.1436 451.38,44.6436 472.5,34C 488.343,30.1598 495.843,36.3265 495,52.5C 486.962,69.41 478.795,86.2433 470.5,103C 480.458,102.126 490.458,101.793 500.5,102C 505.594,103.599 509.261,106.766 511.5,111.5 Z M 444.5,83.5 C 439.617,94.267 434.45,104.934 429,115.5C 426.133,126.267 429.966,133.434 440.5,137C 448.023,137.137 455.523,136.637 463,135.5C 463.833,135.833 464.667,136.167 465.5,136.5C 460.037,143.593 456.037,151.427 453.5,160C 470.487,253.372 444.154,332.038 374.5,396C 337.969,424.855 296.302,441.188 249.5,445C 194.368,450.245 140.368,444.578 87.5,428C 129.462,421.606 164.628,402.773 193,371.5C 199.871,361.522 198.371,353.022 188.5,346C 159.1,341.755 131.1,333.088 104.5,320C 100.5,317.333 96.5,314.667 92.5,312C 102.151,307.509 111.485,302.509 120.5,297C 127.408,289.83 128.241,281.996 123,273.5C 121.745,272.789 120.579,271.956 119.5,271C 98.2245,265.029 78.8912,255.362 61.5,242C 51.7552,233.007 44.0885,222.507 38.5,210.5C 45.7571,210.46 53.0904,210.293 60.5,210C 77.206,209.65 83.706,201.483 80,185.5C 59.4294,164.455 51.7627,139.455 57,110.5C 108.113,182.146 177.946,218.646 266.5,220C 272.098,218.069 275.598,214.236 277,208.5C 275.349,196.244 274.682,183.911 275,171.5C 277.049,143.57 288.549,120.403 309.5,102C 329.848,86.5801 352.515,81.5801 377.5,87C 387.723,90.4025 397.556,94.5692 407,99.5C 410.147,98.7224 413.313,97.8891 416.5,97C 425.733,92.2162 435.067,87.7162 444.5,83.5 Z"/></g>
</svg>
